<svg width="29" height="50" viewBox="0 0 29 50" fill="none" xmlns="http://www.w3.org/2000/svg">
<path d="M24.91 4.88077e-05H28.8038V13.9352H25.0033C22.4133 13.9352 20.3137 16.0348 20.3137 18.6247C20.3137 18.6302 20.3137 18.6357 20.3138 18.6411V18.6403V19.0848H26.6702V30.9086H20.3138V50H6.37862V30.9151H0V19.0913H6.37862V18.6469V18.6464C6.37862 8.39105 14.6575 0.0692474 24.8967 0H24.9033L24.91 4.88077e-05ZM25.47 3.33384H24.9188C16.5161 3.41539 9.73336 10.2356 9.71236 18.6449V22.4252H3.33374V27.5815H9.71236V46.6729H16.9799V27.5815H23.3364V22.4252H16.98V18.6469V18.6247C16.98 14.1936 20.572 10.6014 25.0032 10.6014H25.47V3.33384Z" fill="#56413E"/>
</svg>
