<svg width="50" height="50" viewBox="0 0 50 50" fill="none" xmlns="http://www.w3.org/2000/svg">
<path d="M10.1556 4.88013e-05H39.8444C45.4506 0.00639646 49.9937 4.54937 50 10.155V39.8444C49.9937 45.4506 45.4507 49.9937 39.8451 50H10.1556C4.54932 49.9937 0.00634766 45.4507 0 39.8451V10.1557C0.00634766 4.54937 4.54932 0.00634766 10.1549 0H10.1555L10.1556 4.88013e-05ZM39.8444 46.6667C43.6107 46.6629 46.6628 43.6107 46.6667 39.8448V10.1557C46.6628 6.38936 43.6107 3.33721 39.8448 3.3334H10.1556C6.38931 3.33721 3.33721 6.38936 3.3333 10.1553V39.8445C3.33721 43.6107 6.38931 46.6628 10.1552 46.6667H10.1556L39.8444 46.6667ZM25 12.7334C31.7747 12.7334 37.2666 18.2254 37.2666 25C37.2666 31.7746 31.7747 37.2667 25 37.2667C18.2253 37.2667 12.7334 31.7748 12.7334 25.0001C12.7409 18.2285 18.2284 12.741 24.9993 12.7334H25V12.7334ZM25 33.9334C29.9337 33.9334 33.9334 29.9338 33.9334 25C33.9334 20.0663 29.9337 16.0667 25 16.0667C20.0663 16.0667 16.0667 20.0663 16.0667 25C16.073 29.9312 20.0688 33.9271 24.9994 33.9334H25ZM41.9556 11.2223C41.9556 12.9773 40.5328 14.4 38.7778 14.4C37.0229 14.4 35.6 12.9773 35.6 11.2223C35.6 9.46724 37.0228 8.04453 38.7777 8.04453C40.5327 8.04453 41.9556 9.46724 41.9556 11.2223Z" fill="#56413E"/>
</svg>
