<svg width="51" height="50" viewBox="0 0 51 50" fill="none" xmlns="http://www.w3.org/2000/svg">
<path d="M25.3037 4.88013e-05H25.3099C38.9659 4.88013e-05 50.0362 11.0704 50.0362 24.7263C50.0362 38.3823 38.9658 49.4525 25.31 49.4525C21.2718 49.4525 17.4597 48.4846 14.0931 46.7679L14.2332 46.8327L0 50L3.16729 35.7668C1.52676 32.5497 0.565527 28.7502 0.565527 24.7263C0.565527 11.0767 11.6256 0.0103027 25.2728 0H25.2737L25.3037 4.88013e-05ZM25.3037 46.0025C37.0542 46.0025 46.5798 36.4768 46.5798 24.7263C46.5798 12.9758 37.0542 3.4502 25.3037 3.4502H25.2738C13.5276 3.45586 4.00767 12.9793 4.00767 24.7263C4.00767 28.3888 4.93296 31.8351 6.56274 34.8442L6.50708 34.7318L6.8061 35.2953L4.54272 45.4596L14.7092 43.1962L15.2728 43.4976C18.175 45.0738 21.6274 46.001 25.2962 46.0025H25.2967H25.3037ZM28.9539 39.6127C23.9243 39.3596 19.478 37.0567 16.3995 33.5292L16.3814 33.5082C10.1712 27.238 9.85156 21.5683 10.6681 17.9133C11.2568 15.3607 12.4557 13.1463 14.1046 11.3522L14.0953 11.3625L15.3143 10.1435L23.9927 18.8219L23.321 20.1629C23.0028 20.7764 22.8162 21.5022 22.8162 22.2718C22.8162 23.5721 23.349 24.7479 24.2082 25.5928L24.225 25.6096C25.0663 26.4618 26.2342 26.9897 27.5257 26.9897H27.5523H27.551C28.3168 26.9888 29.0395 26.8045 29.6774 26.4782L29.6511 26.4905L29.9592 26.3341L31.4129 26.2306L39.7646 34.5939L38.5432 35.8129C36.023 38.1297 32.6606 39.5651 28.9636 39.6125L28.9541 39.6126L28.9539 39.6127ZM15.4798 15.1854C13.8398 17.78 11.5949 23.7603 18.8333 31.0793C21.3156 33.9807 24.8885 35.8865 28.9094 36.1579L28.9538 36.1603C31.0947 36.1311 33.0793 35.4865 34.7456 34.3959L34.7042 34.4214L30.258 29.9753C29.4538 30.2668 28.5257 30.4354 27.5583 30.4354H27.5383H27.5393C23.0233 30.4168 19.3697 26.7517 19.3697 22.2332C19.3697 21.2657 19.5372 20.3374 19.8448 19.4755L19.827 19.5327L15.4798 15.1854Z" fill="#56413E"/>
</svg>
